<?xml version="1.0" encoding="UTF-8"?>
<svg width="400" height="600" viewBox="0 0 400 600" xmlns="http://www.w3.org/2000/svg">
  <defs>
    <linearGradient id="bgGrad" x1="0%" y1="0%" x2="0%" y2="100%">
      <stop offset="0%" style="stop-color:#f8f9fa;stop-opacity:1" />
      <stop offset="100%" style="stop-color:#e9ecef;stop-opacity:1" />
    </linearGradient>
  </defs>
  
  <!-- Background -->
  <rect width="400" height="600" fill="url(#bgGrad)"/>
  
  <!-- Header -->
  <rect x="0" y="0" width="400" height="80" fill="#3182ce"/>
  <text x="200" y="45" font-family="Arial, sans-serif" font-size="18" font-weight="bold" fill="white" text-anchor="middle">Pay4All Payment</text>
  
  <!-- Payment Methods -->
  <rect x="40" y="120" width="320" height="80" rx="12" fill="white" stroke="#e9ecef" stroke-width="2"/>
  <rect x="60" y="140" width="40" height="40" rx="8" fill="#3182ce"/>
  <text x="85" y="163" font-family="Arial, sans-serif" font-size="24" fill="white" text-anchor="middle">📱</text>
  <text x="120" y="150" font-family="Arial, sans-serif" font-size="16" font-weight="bold" fill="#333">e-Kwanza</text>
  <text x="120" y="170" font-family="Arial, sans-serif" font-size="12" fill="#666">Mobile wallet payment</text>
  
  <rect x="40" y="220" width="320" height="80" rx="12" fill="white" stroke="#e9ecef" stroke-width="2"/>
  <rect x="60" y="240" width="40" height="40" rx="8" fill="#38a169"/>
  <text x="85" y="263" font-family="Arial, sans-serif" font-size="24" fill="white" text-anchor="middle">💳</text>
  <text x="120" y="250" font-family="Arial, sans-serif" font-size="16" font-weight="bold" fill="#333">Multicaixa Express</text>
  <text x="120" y="270" font-family="Arial, sans-serif" font-size="12" fill="#666">Terminal payment</text>
  
  <!-- Phone Input -->
  <rect x="40" y="340" width="320" height="50" rx="8" fill="white" stroke="#ced4da" stroke-width="1"/>
  <text x="60" y="330" font-family="Arial, sans-serif" font-size="12" fill="#666">Phone Number</text>
  <text x="60" y="370" font-family="Arial, sans-serif" font-size="14" fill="#333">+244 9XX XXX XXX</text>
  
  <!-- Buttons -->
  <rect x="40" y="420" width="150" height="45" rx="8" fill="#6c757d"/>
  <text x="115" y="447" font-family="Arial, sans-serif" font-size="14" font-weight="bold" fill="white" text-anchor="middle">Cancel</text>
  
  <rect x="210" y="420" width="150" height="45" rx="8" fill="#3182ce"/>
  <text x="285" y="447" font-family="Arial, sans-serif" font-size="14" font-weight="bold" fill="white" text-anchor="middle">Continue</text>
  
  <!-- Footer -->
  <text x="200" y="550" font-family="Arial, sans-serif" font-size="10" fill="#666" text-anchor="middle">Select your preferred payment method</text>
</svg>
